<?xml version="1.0" standalone="no"?>
<!DOCTYPE svg PUBLIC "-//W3C//DTD SVG 1.1//EN" "http://www.w3.org/Graphics/SVG/1.1/DTD/svg11.dtd" >
<svg xmlns="http://www.w3.org/2000/svg">
<metadata>
Created by FontForge 20120731 at Tue Nov  8 15:05:46 2016
 By admin
</metadata>
<defs>
<font id="iconfont" horiz-adv-x="1024" >
  <font-face 
    font-family="iconfont"
    font-weight="500"
    font-stretch="normal"
    units-per-em="1024"
    panose-1="2 0 6 3 0 0 0 0 0 0"
    ascent="896"
    descent="-128"
    x-height="792"
    bbox="0 -160 6142.94 896"
    underline-thickness="0"
    underline-position="0"
    unicode-range="U+0078-E938"
  />
<missing-glyph 
 />
    <glyph glyph-name=".notdef" 
 />
    <glyph glyph-name=".notdef" 
 />
    <glyph glyph-name=".null" horiz-adv-x="0" 
 />
    <glyph glyph-name="nonmarkingreturn" horiz-adv-x="341" 
 />
    <glyph glyph-name="x" unicode="x" horiz-adv-x="1001" 
d="M281 543q-27 -1 -53 -1h-83q-18 0 -36.5 -6t-32.5 -18.5t-23 -32t-9 -45.5v-76h912v41q0 16 -0.5 30t-0.5 18q0 13 -5 29t-17 29.5t-31.5 22.5t-49.5 9h-133v-97h-438v97zM955 310v-52q0 -23 0.5 -52t0.5 -58t-10.5 -47.5t-26 -30t-33 -16t-31.5 -4.5q-14 -1 -29.5 -0.5
t-29.5 0.5h-32l-45 128h-439l-44 -128h-29h-34q-20 0 -45 1q-25 0 -41 9.5t-25.5 23t-13.5 29.5t-4 30v167h911zM163 247q-12 0 -21 -8.5t-9 -21.5t9 -21.5t21 -8.5q13 0 22 8.5t9 21.5t-9 21.5t-22 8.5zM316 123q-8 -26 -14 -48q-5 -19 -10.5 -37t-7.5 -25t-3 -15t1 -14.5
t9.5 -10.5t21.5 -4h37h67h81h80h64h36q23 0 34 12t2 38q-5 13 -9.5 30.5t-9.5 34.5q-5 19 -11 39h-368zM336 498v228q0 11 2.5 23t10 21.5t20.5 15.5t34 6h188q31 0 51.5 -14.5t20.5 -52.5v-227h-327z" />
    <glyph glyph-name="shezhi" unicode="&#x3466;" horiz-adv-x="1000" 
d="M607 -122h-186v9q0 64 -44.5 109.5t-107.5 45.5q-42 0 -77 -21l-8 -5l-92 162l7 5q55 32 71.5 94t-14.5 117q-21 36 -57 57l-7 5l92 162l8 -5q36 -21 77 -21q40 0 75 20q37 21 57 57q21 37 21 78v9h185v-8q0 -65 45 -110.5t108 -45.5q41 0 77 21l7 4l93 -162l-8 -4
q-55 -32 -71.5 -94.5t15.5 -117.5q20 -36 56 -57l7 -4l-92 -162l-8 4q-36 21 -77 21q-40 0 -75 -20q-36 -21 -57 -57t-20 -77v-9zM439 -104h150q2 41 22 77q24 41 64 64q39 22 84 22q41 0 78 -19l75 131q-34 23 -55 59q-34 60 -17.5 127t73.5 105l-75 131q-37 -19 -78 -19
q-68 0 -117.5 48t-53.5 117h-149q-2 -42 -23 -79q-23 -40 -64 -63q-39 -23 -84 -23q-41 0 -78 19l-75 -131q35 -23 55 -59q36 -62 17 -131q-17 -64 -72 -100l75 -131q36 18 78 18q70 0 120 -50q46 -47 50 -113zM514 134q-75 0 -128 53.5t-53 129.5t53 129.5t128 53.5
t128.5 -53.5t53.5 -129.5t-53.5 -129.5t-128.5 -53.5zM514.5 482q-67.5 0 -115.5 -48.5t-48 -116.5t48 -116.5t115.5 -48.5t115.5 48.5t48 116.5t-48 116.5t-115.5 48.5z" />
    <glyph glyph-name="gear" unicode="&#xe665;" 
d="M855 397q-11 40 -32 76l74 75l-137 137l-74 -75q-37 21 -77 32v105h-194v-105q-40 -11 -76 -32l-75 75l-137 -137l75 -75q-21 -36 -32 -76h-105v-194h105q11 -40 32 -77l-75 -74l137 -137l75 74q36 -21 76 -32v-105h194v105q40 11 77 32l74 -74l137 137l-74 74
q20 36 32 77h105v27v167h-105zM909 254h-54h-39l-10 -37q-10 -35 -28 -66l-19 -34l28 -27l38 -38l-65 -65l-38 38l-27 28l-34 -19q-31 -18 -66 -28l-37 -10v-39v-54h-91v54v39l-38 10q-34 10 -65 28l-34 19l-28 -28l-38 -38l-64 65l38 38l27 27l-19 34q-17 31 -27 66l-11 37
h-38h-54v91h54h38l11 38q10 34 27 65l19 34l-27 28l-38 38l64 64l38 -38l28 -27l34 19q31 17 65 27l38 11v38v54h91v-54v-38l37 -11q35 -10 66 -27l34 -19l27 27l38 38l65 -64l-38 -38l-28 -28l19 -34q18 -31 28 -65l10 -38h39h54v-91zM512 489q-38 0 -73 -15
q-52 -22 -84 -68q-32 -48 -32 -106q0 -39 15 -74q22 -52 68 -83q48 -33 106 -33q79 0 134.5 55.5t55.5 134t-55.5 134t-134.5 55.5zM686 300q0 -36 -13 -68q-20 -48 -63 -77q-44 -29 -98 -29q-35 0 -67 13q-48 20 -77 63q-30 44 -30 98q0 35 14 67q20 48 63 77q44 30 97 30
q36 0 68 -14q48 -20 77 -63q29 -44 29 -97z" />
    <glyph glyph-name="shouye" unicode="&#xe600;" 
d="M793 -84h-583q-10 0 -17.5 5t-7.5 12v326h5v-326q0 -5 6 -8.5t14 -3.5h583q9 0 15 3.5t6 8.5v326h5v-326q0 -7 -7.5 -12t-18.5 -5zM423 121h183v-199h-183v199zM904 277l-87 87v188q0 11 -7.5 18.5t-18.5 7.5h-40q-11 0 -18.5 -7.5t-7.5 -18.5v-96l-203 202q-7 8 -17.5 8
t-18.5 -8l-381 -381q-8 -8 -8 -18h815q0 10 -8 18z" />
    <glyph glyph-name="jungongcelianghuizong" unicode="&#xe604;" 
d="M954 643v171l-873 -859h873v104h-106v33h106v35h-71v35h71v35h-71v32h71v35h-106v35h106v35h-71v35h71v32h-71v35h71v35h-106v35h106v33h-71v34h71v35h-71v35h71zM812 92h-396l396 391v-391zM593 714l-51 50l-17 -17l51 -51zM127 249q9 -10 22 -10t22 10l283 324l-51 52
l-320 -288q-9 -9 -9 -22t9 -22zM129.5 329q7.5 7 17.5 7t17 -7t7 -17.5t-7 -17.5t-17 -7t-17.5 7t-7.5 17.5t7.5 17.5zM541 522l85 86l-183 185l-99 17l15 -103z" />
    <glyph glyph-name="dizhi" unicode="&#xe620;" 
d="M511 724q104 0 177.5 -72t73.5 -173q0 -37 -11 -71q-15 -33 -240 -492q-226 459 -241 492q-10 34 -10 71q0 101 73.5 173t177.5 72zM511 316q59 0 100.5 42t41.5 101t-41.5 100.5t-100.5 41.5t-101 -41.5t-42 -100.5t42 -101t101 -42zM511 746q-113 0 -193 -78.5
t-80 -188.5q0 -40 11 -78v0l1 -1q5 -12 70.5 -145.5t128 -261l62.5 -127.5q249 507 261 534v1v0q12 38 12 78q0 110 -80 188.5t-193 78.5v0zM511 338q-50 0 -85.5 35.5t-35.5 85t35.5 85t85.5 35.5t85 -35.5t35 -85t-35 -85t-85 -35.5v0z" />
    <glyph glyph-name="iconman" unicode="&#xe605;" 
d="M776 471q0 61 -26 114.5t-71 90.5l-32 -154l-39 8l36 170q-61 35 -132 35q-73 0 -135 -37l36 -168l-39 -8l-32 151q-44 -37 -69 -89.5t-25 -112.5h-48v-64h624v64h-48zM654 174q-27 -40 -53.5 -97.5t-39.5 -95.5l-13 -38l-10 193h-52l-10 -193q-5 16 -14.5 42t-37 87.5
t-54.5 101.5q-75 -9 -130.5 -31.5t-88.5 -52t-53 -71.5t-27 -83.5t-7 -94.5h896q0 53 -7 94.5t-27 83.5t-53 71.5t-88.5 52t-130.5 31.5zM704 449q5 -21 5 -42q0 -81 -58 -139t-139 -58t-139 58t-58 139q0 21 5 42h-56q-3 -22 -3 -42q0 -104 73.5 -178t177.5 -74t177.5 74
t73.5 178q0 20 -3 42h-56zM552 62h-80l-15 77h110z" />
    <glyph glyph-name="shoucang" unicode="&#xe607;" 
d="M510 753q15 0 21 -12l97 -198q9 -18 29 -21l224 -33q14 -2 18 -14t-5 -20l-164 -161q-14 -14 -11 -33l38 -222q2 -13 -9 -20q-6 -4 -13 -4q-6 0 -12 3l-195 102q-9 5 -18.5 5t-18.5 -5l-195 -102q-5 -3 -11 -3q-8 0 -14 4q-11 7 -9 20l38 222q3 19 -11 33l-164 161
q-9 8 -5 20t18 14l224 33q20 3 29 21l98 198q6 12 21 12zM510 791q-18 0 -33.5 -9t-23.5 -25l-97 -197l-223 -33q-18 -2 -31 -13t-19 -27q-12 -34 14 -60l164 -160l-38 -222q-6 -36 26 -58q16 -10 36 -10q15 0 30 7l195 103l195 -103q14 -7 30 -7q19 0 35 10q32 22 26 58
l-38 222l164 160q26 26 14 60q-5 16 -18.5 27t-30.5 13l-224 33l-97 197q-8 16 -23 25t-33 9v0z" />
    <glyph glyph-name="yusuan" unicode="&#xe713;" 
d="M845 594l-126 112q-9 9 -21 9h-499q-12 0 -20.5 -9.5t-8.5 -22.5v-719q0 -14 9 -23l88 -80q18 -14 41 0l90 81l94 -85q14 -8 21 -7.5t19 7.5l94 85l94 -85q12 -9 20 -9t20 9l85 77q9 10 9 23v615q0 13 -9 22zM808 -45l-58 -54l-98 79q-22 18 -42 0l-98 -79l-98 79
q-12 9 -21 9t-21 -9l-91 -79l-65 62v706h472v-85q0 -8 5.5 -14t13.5 -6h101v-609v0zM748 352.5q-1 4.5 -5 7.5l-95 59q-4 2 -8.5 1t-6.5 -5l-154 -246l22 -93l92 22l153 246q3 4 2 8.5zM519 107l-11 52l63 -40zM629 465q-6 34 -57.5 53t-112 19t-113.5 -19t-62 -53v-276
q8 -55 160 -62v41q-30 1 -53 4.5t-34.5 7.5t-19 9.5t-9 9t-1.5 7.5v73q0 -2 2 -4.5t11.5 -8.5t22.5 -11t38.5 -9t58.5 -4h38v48h-38q-34 -1 -60 4t-39.5 12t-21.5 15.5t-10 14t-2 9.5v64q0 -1 1.5 -3.5t10 -8t21.5 -9.5t38 -7.5t58 -3.5q51 0 87.5 8.5t47.5 16.5l11 8
q4 3 9 7.5t13 19t5 28.5zM456 414q-55 1 -84 13t-27 30q1 16 30.5 30.5t80.5 14.5q57 -1 90.5 -12.5t34.5 -31.5q1 -18 -34 -31.5t-91 -12.5z" />
    <glyph glyph-name="shouru" unicode="&#xe610;" 
d="M348 -101q-34 12 -63 25q-22 9 -30.5 28.5t0.5 42.5l12 34q5 10 -4 17q-46 40 -70 87q-27 49 -25 98q0 15 2 42.5t2 40.5q-26 16 -40 28q-31 26 -30 70.5t32 68.5q8 7 17 9q12 5 20 -9q5 -13 -5 -22q-3 -3 -4 -3q-22 -10 -24 -39.5t20 -47.5q3 -3 26 -19q5 10 6 16
q33 78 120 128q102 57 232 44q8 -1 24 -4t24 -4q6 0 7 4q39 73 124 98q15 4 21 -5q6 -7 2 -23q-18 -64 -21 -76q-2 -5 -4 -30q-2 -9 6 -12q57 -26 89 -83q17 -30 23 -60q2 -10 4 -11.5t11 -1.5h20q41 -2 49 -44q0 -1 0.5 -2.5l0.5 -1.5v-94q0 -1 -0.5 -2.5t-0.5 -2.5
q-7 -40 -44 -43q-10 -1 -19 0q-19 3 -30 -18q-28 -62 -88 -100q-1 -1 -3.5 -3t-4.5 -3q2 -4 4.5 -11.5t3.5 -11.5q10 -26 1.5 -45t-32.5 -28l-30 -12l-30 -12h-19q-31 9 -41 49q-1 2 -2.5 6t-1.5 6q-2 11 -14 9q-93 -10 -148 4q-2 1 -4 -1t-3 -4q-3 -7 -9 -23
q-10 -37 -41 -46h-18v3zM700 586q-3 -2 -8 -5t-8 -5q-39 -24 -61 -72q-8 -16 -26 -14q-46 9 -67 11q-130 11 -228 -57q-39 -26 -58 -56q-35 -53 -40 -130q-4 -68 26 -118q22 -35 60 -67q25 -22 13 -54q-2 -6 -6.5 -18.5t-6.5 -18.5q-7 -17 9 -24l27.5 -11t20.5 -8
q17 -7 23 10q8 22 16 42q9 22 35 19q4 0 21.5 -3.5t27.5 -3.5q49 0 98 3q21 2 31.5 -4.5t16.5 -27.5q9 -24 11 -29q5 -13 17 -9q33 13 56 23q12 5 8 17q-5 15 -8 21q-6 21 -2 34t22 24q23 15 28 20q32 28 54 74q13 29 45 29h24q15 0 15 16v83q0 9 -3.5 12.5t-12.5 3.5
q-20 0 -30 1q-30 1 -36 34q-18 94 -105 130q-9 4 -12.5 9t-3.5 16q0 41 10 76q3 11 7 27v0zM406 718q4 -2 15 -4.5t19.5 -5.5t15.5 -7q63 -33 72 -110q1 -2 1 -4t-0.5 -5t-0.5 -4q-11 0 -33 -3q-4 67 -57 95q-34 18 -74 4q-39 -15 -56.5 -54.5t0.5 -88.5q-6 -3 -18 -8
t-14 -6q-13 28 -13 61q0 53 33.5 92.5t83.5 46.5q1 0 7 2q6 -1 19 -1v0zM682 296q0 15 10 25.5t24 10.5t24 -10.5t10 -25.5t-10 -25.5t-24 -10.5q-14 -1 -24 10t-10 26v0zM682 296z" />
    <glyph glyph-name="1" unicode="&#xe606;" 
d="M85 738h37v-846h-37v846zM498 738h38v-846h-38v846zM9 -108h997v-38h-997v38zM85 738h451v-38h-451v38zM949 -108h-37v593l37 -10v-583zM912 485v-39l-376 98v39zM179 588h20v-113h-20v113zM271 588h20v-113h-20v113zM179 588h112v-21h-112v21zM179 495h112v-20h-112v20z
M329 588h20v-113h-20v113zM422 588h20v-113h-20v113zM329 588h113v-21h-113v21zM329 495h113v-20h-113v20zM179 437h20v-113h-20v113zM271 437h20v-113h-20v113zM179 437h112v-20h-112v20zM179 345h112v-21h-112v21zM329 437h20v-113h-20v113zM422 437h20v-113h-20v113z
M329 437h113v-20h-113v20zM329 345h113v-21h-113v21zM179 287h20v-113h-20v113zM271 287h20v-113h-20v113zM179 287h112v-21h-112v21zM179 194h112v-20h-112v20zM329 287h20v-113h-20v113zM422 287h20v-113h-20v113zM329 287h113v-21h-113v21zM329 194h113v-20h-113v20z
M179 136h20v-112h-20v112zM271 136h20v-112h-20v112zM179 136h112v-20h-112v20zM179 44h112v-20h-112v20zM329 136h20v-112h-20v112zM422 136h20v-112h-20v112zM329 136h113v-20h-113v20zM329 44h113v-20h-113v20zM592 437h20v-113h-20v113zM685 437h20v-113h-20v113z
M592 437h113v-20h-113v20zM592 345h113v-21h-113v21zM763 324h-20v113l20 -7v-106zM855 324h-20v82l20 -6v-76zM835 406v-19l-72 24v19zM743 345h112v-21h-112v21zM592 287h20v-113h-20v113zM685 287h20v-113h-20v113zM592 287h113v-21h-113v21zM592 194h113v-20h-113v20z
M743 287h20v-113h-20v113zM835 287h20v-113h-20v113zM743 287h112v-21h-112v21zM743 194h112v-20h-112v20zM592 136h20v-112h-20v112zM685 136h20v-112h-20v112zM592 136h113v-20h-113v20zM592 44h113v-20h-113v20zM743 136h20v-112h-20v112zM835 136h20v-112h-20v112z
M743 136h112v-20h-112v20zM743 44h112v-20h-112v20z" />
    <glyph glyph-name="icon7" unicode="&#xe639;" 
d="M533 698l-482 -335l27 -29l32 19v-422h43h7h236v42h-248l1 411l383 265l352 -263v-408h-245v-42h236h7h43v416l28 -22l32 32zM825 513h37v99v1v49h-160v-38h123v-111zM772 361q-16 21 -31.5 34t-31.5 18t-23.5 6.5t-21.5 2.5q-43 2 -87 -21.5t-60 -42.5
q-22 29 -66.5 47.5t-89.5 13.5q-24 -2 -53 -21q-24 -15 -40 -37.5t-24 -50.5t-7 -60t13 -60.5t28.5 -53t35 -45t34.5 -36.5q24 -23 50 -45q25 -22 48 -38q48 -33 71 -43q7 2 34 17.5t65 41.5t79 67.5t65 84.5q6 12 14 32.5t17 54.5t5 71t-24 63v0zM746 236q-11 -48 -38 -92
t-57.5 -73.5t-60.5 -52t-49 -33t-22 -10.5t-23 11t-51 34t-62.5 52.5t-59.5 73t-39 88.5q-2 13 -1 33t11.5 41.5t24.5 39t38.5 26t53.5 1.5q7 -1 23.5 -8t43 -24.5t44.5 -39.5q17 22 36 38q16 14 37 25.5t44 9.5h3q135 -9 104 -140v0z" />
    <glyph glyph-name="fenlei" unicode="&#xe609;" 
d="M512 687q-105 0 -194 -52t-141 -141t-52 -194t52 -194t141 -141t194 -52t194 52t141 141t52 194t-52 194t-141 141t-194 52zM332 139q-10 0 -16.5 7.5t-6.5 16.5q0 21 22 23q10 1 18 -6t8 -17q0 -11 -7.5 -17.5t-17.5 -6.5zM333 270q-9 0 -16 7t-8 15q0 10 5.5 17t15.5 9
q9 1 16 -4q11 -7 11 -20q0 -11 -7 -17.5t-17 -6.5zM333 414q-10 -1 -16.5 6t-7.5 16q0 10 5.5 17t15.5 8q11 1 19 -6t8 -17q0 -11 -7 -17.5t-17 -6.5zM715 151h-322v22v2h322v-24zM715 282h-322v23v1h322v-24zM715 426h-322v22v1h322v-23z" />
    <glyph glyph-name="fenlei1" unicode="&#xe687;" 
d="M801 -134zM88 451zM123 707q-23 0 -39.5 -16t-16.5 -39.5t16.5 -39.5t39.5 -16t39.5 16t16.5 39.5t-16.5 39.5t-39.5 16v0zM302 618h625q14 0 23.5 10t9.5 23.5t-9.5 23.5t-23.5 10h-625q-14 0 -24 -10t-10 -23.5t10 -23.5t24 -10v0zM123 373q-23 0 -39.5 -16.5
t-16.5 -39.5t16.5 -39.5t39.5 -16.5t39.5 16.5t16.5 39.5t-16.5 39.5t-39.5 16.5v0zM927 350h-625q-14 0 -24 -9.5t-10 -23.5t10 -24t24 -10h625q14 0 23.5 10t9.5 24t-9.5 23.5t-23.5 9.5v0zM123 15q-23 0 -39.5 -16t-16.5 -39.5t16.5 -39.5t39.5 -16t39.5 16t16.5 39.5
t-16.5 39.5t-39.5 16v0zM927 -7h-625q-14 0 -24 -10t-10 -23.5t10 -23.5t24 -10h625q14 0 23.5 10t9.5 23.5t-9.5 23.5t-23.5 10v0zM927 0z" />
    <glyph glyph-name="xiao46" unicode="&#xe891;" 
d="M516 -160q93 0 178 36.5t147 98t98 146.5t36 178.5t-36 178.5t-98 146.5t-147 98t-178 36.5t-178 -36.5t-147 -98t-98 -146.5t-36 -178.5t36 -178.5t98 -146.5t147 -98t178 -36.5zM516 721q114 0 211 -56.5t153.5 -153.5t56.5 -211t-56.5 -211.5t-153.5 -153.5t-211 -56
t-211 56t-153.5 153.5t-56.5 211.5t56.5 211t153.5 153.5t211 56.5zM255 430h512q8 0 13.5 5.5t5.5 13.5t-5.5 13.5t-13.5 5.5h-512q-8 0 -13.5 -5.5t-5.5 -13.5t5.5 -13.5t13.5 -5.5zM255 279h512q8 0 13.5 5.5t5.5 13.5t-5.5 13.5t-13.5 5.5h-512q-8 0 -13.5 -5.5
t-5.5 -13.5t5.5 -13.5t13.5 -5.5zM255 127h512q8 0 13.5 5.5t5.5 13.5t-5.5 14t-13.5 6h-512q-8 0 -13.5 -6t-5.5 -14t5.5 -13.5t13.5 -5.5z" />
    <glyph glyph-name="dizhi1" unicode="&#xe617;" 
d="M901 39q0 -37 -58 -65t-144.5 -41.5t-186.5 -13.5t-187 13.5t-144.5 41.5t-57.5 65q0 25 23.5 45t61.5 32.5t68.5 19.5t61.5 12q8 1 13.5 -3.5t6.5 -11.5t-3 -13t-12 -7q-62 -9 -106.5 -23.5t-61.5 -27t-17 -23.5q0 -18 42 -37t126 -33t185.5 -14t186 14t126 33t41.5 37
q0 11 -17 23.5t-61.5 27t-108.5 23.5q-7 1 -11.5 7t-3.5 13t7 11.5t13 3.5q32 -4 63 -11t69 -19.5t62 -33t24 -45.5zM437 458q0 31 22 53t53 22t52.5 -22t21.5 -53t-21.5 -53t-52.5 -22t-53 22t-22 53zM622 458q0 45 -32.5 77.5t-78 32.5t-77.5 -32.5t-32 -77.5t32 -77.5
t77.5 -32.5t78 32.5t32.5 77.5zM511.5 647q81.5 0 139 -57.5t57.5 -138.5q0 -53 -23 -112.5t-59.5 -111.5t-63 -84t-50.5 -57q-25 25 -51 56t-63 83t-60 112t-23 114q0 81 57.5 138.5t139 57.5zM500 48l12 -12l12 12q11 10 27 27t53 63t65.5 91.5t51.5 106.5t23 115
q0 96 -68 164t-164 68t-164 -68t-68 -164q0 -55 23 -116.5t51 -107t65 -91t53.5 -62t27.5 -26.5z" />
    <glyph glyph-name="xianchangkaohe" unicode="&#xe660;" 
d="M960 104v490l-154 154h-742v-644h519q7 -44 37 -77l-94 -175h182v128q10 -2 20.5 -2t21.5 2v-128h182l-94 175q30 33 36 77h86zM806 678l70 -70h-70v70zM106 706h658v-140h154v-420h-44q-7 54 -48.5 90t-96.5 36t-96.5 -36t-49.5 -90h-477v560zM666 -106h-70l56 112
l14 -14v-98zM729 20q-38 0 -67 24t-36 60v3v0q-1 4 -2 7v1v2v1v2v0.5v0.5v1v3v3v1v0.5v0.5v3v0v3v0q1 1 1 2v0v3v0q0 1 1 2v1v2q7 36 36 60t67 24t66.5 -24t36.5 -60v-2v-1q0 -1 1 -2v0v-3v0v-2v0v-3h1v-3v-0.5v-0.5v-1v-3v-3v-1v-0.5v-0.5v-2l-1 -1v-2v-1q0 -3 -1 -7v0v-3
q-8 -36 -36.5 -60t-66.5 -24zM862 -106h-70v98l14 14zM162 608h406v-42h-406v42zM162 412h406v-42h-406v42zM162 510h406v-42h-406v42z" />
    <glyph glyph-name="renwu" unicode="&#xe601;" 
d="M646 237q-4 16 -13 31q30 40 13 57l-9 8q-14 15 -56 -13q-15 9 -32 14q-8 48 -32 48h-9q-21 0 -33 -49q-16 -4 -31 -13q-40 30 -57 13l-9 -8q-15 -14 14 -58q-9 -15 -13 -31q-50 -7 -50 -32v-9q0 -21 50 -33q4 -16 13 -30q-28 -44 -13 -59l8 -6q10 -9 23 -5.5t23.5 10
l10.5 6.5l-2 2q16 -9 33 -14q12 -49 33 -49h9q7 0 13 5t9.5 12t6 14t2.5 12l1 5h-2q17 5 33 14q42 -28 56 -13l9 9q5 5 5.5 12.5t-1.5 14.5t-6.5 14.5t-6.5 10t-3 4.5q9 15 13 32q49 12 49 32v9q0 11 -13 19.5t-21 10.5t-15 3zM512 125q-31 0 -52.5 22t-21.5 52.5t21.5 52
t52.5 21.5t52.5 -21.5t21.5 -52t-21.5 -52.5t-52.5 -22zM807 624v48q0 36 -21.5 56t-59 20t-58.5 -20t-21 -56v-48h-54v48q0 36 -21.5 56t-59 20t-59 -20t-21.5 -56v-48h-54v48q0 36 -21 56t-58.5 20t-59 -20t-21.5 -56v-48h-92v-772h772v772h-91zM690 672q0 17 8.5 25
t28.5 8t28.5 -7.5t8.5 -25.5v-129q0 -17 -8.5 -25t-28.5 -8t-28.5 8t-8.5 25v129zM475 672q0 17 9 25t28.5 8t28.5 -8t9 -25v-129q0 -17 -9 -25t-28.5 -8t-28.5 8t-9 25v129zM261 672q0 17 8.5 25t28.5 8t28.5 -8t8.5 -25v-129q0 -17 -8.5 -25t-28.5 -8t-28.5 8t-8.5 25v129
zM833 -83h-642v535h642v-535z" />
    <glyph glyph-name="renwu1" unicode="&#xe683;" 
d="M811 571q-6 6 -14.5 6t-14.5 -6l-307 -308l-165 164q-6 6 -14.5 6t-14.5 -6t-6 -14.5t6 -14.5l178 -177l2 -2q6 -6 14.5 -6t14.5 6l321 323q6 6 6 14.5t-6 14.5zM879 750h-729q-34 0 -57.5 -24t-23.5 -57v-281h1q5 -116 65.5 -213t161 -153t218 -56t218 56t161 153
t65.5 213h1v281q0 33 -24 57t-57 24zM916 385q-5 -104 -59.5 -190.5t-145 -137t-197 -50.5t-197.5 50.5t-145.5 137t-59.5 190.5v0v288q0 35 35 35h735q10 0 22 -9t13 -26v-288h-1z" />
    <glyph glyph-name="jzjc3" unicode="&#xe611;" 
d="M458 98q-9 10 -21 24q-23 20 -39 37h7.5h5.5q-15 24 -26 49q-24 4 -28 5q-53 83 -67 183q32 -12 69 -20q3 23 8 44q-42 9 -81 26v6v7q0 75 23 145q57 -39 128 -43q24 30 47 52q-17 -3 -32 -3q-69 0 -124 42q46 98 129 160q67 -50 112 -130q18 12 43 28q-38 65 -89 112
q69 -13 130 -49q-5 -23 -18 -49q31 19 71 42l38 22q-125 107 -287 107q-139 0 -254 -80h-6v-4q-60 -44 -103 -104q-6 -9 -13 -20q-17 -27 -30 -55q-26 -59 -35 -123q-4 -33 -4 -59q0 -166 108 -290t269 -149q29 33 69 87zM390 822q-61 -56 -100 -132q-27 35 -37 78
q63 40 137 54zM210 736q18 -55 58 -97q-30 -80 -32 -166q-81 52 -124 131q34 77 98 132zM79 450q0 50 14 101q54 -81 144 -130q7 -98 50 -185q-74 31 -128.5 86.5t-79.5 125.5v1v1zM105 313q85 -101 218 -139q36 -52 83 -91q2 -1 10 -3q-2 -1 -4.5 -2.5t-3.5 -2.5
q-103 14 -184.5 78.5t-118.5 159.5zM852 820q2 -19 -33 -45t-90 -57t-113.5 -67t-112 -88t-77.5 -107q-23 -60 -23.5 -111.5t20 -98t49 -81t64.5 -59.5q-41 -59 -73 -101.5t-50.5 -62.5t-32 -31.5t-19 -12.5t-10 -2t-6.5 -4l97 -19q164 279 180 308q-54 52 -82 87
q-16 20 -26 35q-13 20 -18 34q-4 10 -4 15q-3 11 -2 11l-1 10q1 -3 2 -10l3 -11q1 -4 6 -13q7 -13 21 -30q11 -14 29 -32q26 -25 61 -52q14 -11 25 -19q28 49 51 94v0q-35 31 -63 66q-14 17 -20 27q-10 16 -14 26q-3 8 -3 11q-2 8 -2 9v8q0 -3 1 -8l2 -8q1 -3 5 -10
q5 -10 16 -24q9 -10 22 -24q20 -19 47 -40q11 -8 19 -14q28 57 54 112l-2 -2q-28 24 -51 53q-9 12 -15 22q-8 12 -11 20q-3 6 -3 9q-2 7 -1 7l-1 7q1 -3 1 -7l2 -6q1 -3 4 -8q4 -8 13 -19q7 -9 18 -19q15 -16 37 -32q8 -7 15 -12v1q12 27 18 40l34 75q-3 -10 -44 -113
q7 1 16 2q30 2 54 7q17 4 28 7q15 5 23 10q7 3 9 5q5 5 6 5l4 5q-1 -2 -4 -5q0 -1 -5 -6q-2 -3 -8 -7q-9 -6 -23 -12q-10 -5 -28 -11q-17 -6 -36.5 -10.5t-30.5 -6.5l-11 -2v2q-18 -44 -40 -100q6 0 16 1q38 3 69 9q22 5 36 10q19 6 30 12q8 4 11 7l7 6l6 7q-2 -3 -5 -7
q0 -1 -7 -8q-3 -3 -10 -8q-10 -8 -29 -17q-14 -6 -36 -13q-45 -15 -98 -24q-7 -17 -22.5 -49.5t-22.5 -49.5q2 0 6.5 0.5t9.5 0.5t8 1q43 4 79 11q25 5 41 10q22 7 35 15q9 4 12 7q8 7 9 8l6 8q-2 -3 -5 -9q-1 0 -8 -9q-3 -3 -12 -9q-12 -9 -34 -19q-15 -7 -40 -16
q-17 -5 -37.5 -10t-34.5 -7t-30 -4.5t-18 -2.5q-7 -20 -27 -55.5t-25 -50.5q37 -13 77.5 -19.5t87.5 -3.5t88.5 18.5t79.5 51.5t61 89q54 125 -36 393q-48 142 -91 209q-15 23 -15 9q1 -1 1 -2z" />
    <glyph glyph-name="yanshou" unicode="&#xe60e;" 
d="M897 101q-60 67 -149 153q-16 14 -38 14q-8 0 -27 -7l-28 29q66 84 66 188q0 125 -89 213.5t-214 88.5q-53 0 -103.5 -18.5t-93 -53.5t-71 -90.5t-34.5 -123.5v-33q0 -23 9 -60q19 -73 68.5 -126t107 -76.5t117.5 -23.5q104 0 188 66l29 -28q-7 -19 -7 -27q0 -17 10 -31
q75 -80 151 -151q15 -16 37 -16q18 0 32 11q28 25 39 39t11 33t-11 30zM418 230q-44 0 -89 16.5t-85.5 55t-58.5 91.5q-14 51 -14 70v29q7 74 45.5 128.5t91 79.5t110.5 25q105 0 176.5 -72.5t71.5 -174.5q0 -104 -73.5 -176t-174.5 -72zM272 474q-6 22 -11 53v25
q-16 -23 -22 -64v-41q0 -1 3.5 -14.5t3.5 -20.5q7 -33 49.5 -69.5t75.5 -38.5q4 -1 12.5 -2t15 -2t8.5 -1q46 0 89 27h-30q-52 0 -114 42t-80 106z" />
    <glyph glyph-name="wuxing" unicode="&#xe646;" horiz-adv-x="6144" 
d="M1007 442l-189 -163q-18 -19 -14 -45l45 -263q5 -32 -17 -48q-15 -11 -33 -11q-13 0 -25 6l-238 130q-24 13 -47 0l-228 -130q-30 -16 -58 5q-31 22 -27 48l55 268q4 26 -15 45l-198 158q-25 24 -14.5 57t44.5 38l258 46q27 4 38 28l119 254q15 31 49 31t50 -31l114 -254
q12 -24 38 -28l263 -46q15 -2 27 -12.5t17 -25.5q11 -33 -14 -57v0zM2286 442l-189 -163q-18 -19 -14 -45l45 -263q5 -32 -17 -48q-15 -11 -33 -11q-13 0 -25 6l-238 130q-24 13 -47 0l-228 -130q-30 -16 -58 5q-31 23 -27 48l55 268q4 27 -15 45l-198 158q-25 24 -14.5 57
t44.5 38l258 46q27 4 38 28l119 254q15 31 49 31t50 -31l114 -254q12 -24 38 -28l263 -46q15 -2 27 -12.5t17 -25.5q10 -32 -14 -57v0zM3566 442l-189 -163q-18 -19 -14 -45l45 -263q5 -32 -17 -48q-15 -11 -33 -11q-13 0 -25 6l-238 130q-24 13 -47 0l-228 -130
q-30 -16 -58 5q-31 23 -27 48l55 268q4 27 -15 45l-198 158q-25 24 -14.5 57t44.5 38l258 46q27 4 38 28l119 254q15 31 49 31t50 -31l114 -254q12 -24 38 -28l263 -46q15 -2 27 -12.5t17 -25.5q10 -32 -14 -57v0zM4846 442l-189 -163q-18 -19 -14 -45l45 -263
q5 -32 -17 -48q-15 -11 -33 -11q-13 0 -25 6l-238 130q-24 13 -47 0l-228 -130q-30 -16 -58 5q-31 23 -27 48l55 268q4 27 -15 45l-198 158q-25 24 -14.5 57t44.5 38l258 46q27 4 38 28l119 254q15 31 49 31t50 -31l114 -254q12 -24 38 -28l263 -46q15 -2 27 -12.5t17 -25.5
q10 -32 -14 -57v0zM6126 442l-189 -163q-18 -19 -14 -45l45 -263q5 -32 -17 -48q-15 -11 -33 -11q-13 0 -25 6l-238 130q-24 13 -47 0l-228 -130q-30 -16 -58 5q-31 23 -27 48l55 268q4 27 -15 45l-198 158q-25 24 -14.5 57t44.5 38l258 46q27 4 38 28l119 254q15 31 49 31
t50 -31l114 -254q12 -24 38 -28l263 -46q15 -2 27 -12.5t17 -25.5q10 -32 -14 -57v0z" />
    <glyph glyph-name="fenlei1" unicode="&#xe602;" 
d="M350 833h-192q-39 0 -67.5 -28.5t-28.5 -67.5v-192q0 -39 28.5 -67t67.5 -28h192q39 0 67 28t28 67v192q0 39 -28 67.5t-67 28.5zM381 545q0 -13 -9 -22t-22 -9h-192q-13 0 -22.5 9t-9.5 22v192q0 13 9.5 22.5t22.5 9.5h192q13 0 22 -9.5t9 -22.5v-192zM350 386h-192
q-39 0 -67.5 -28t-28.5 -68v-191q0 -40 28.5 -68t67.5 -28h192q39 0 67 28t28 68v191q0 40 -28 68t-67 28zM381 99q0 -13 -9 -22.5t-22 -9.5h-192q-13 0 -22.5 9.5t-9.5 22.5v191q0 13 9.5 22.5t22.5 9.5h192q13 0 22 -9.5t9 -22.5v-191zM605 449h191q40 0 68 28t28 68v191
q0 40 -28 68t-68 28h-191q-40 0 -68 -28t-28 -68v-191q0 -40 28 -68t68 -28zM573 736q0 13 9.5 22.5t22.5 9.5h191q13 0 22.5 -9.5t9.5 -22.5v-191q0 -14 -9.5 -23t-22.5 -9h-191q-13 0 -22.5 9t-9.5 23v191zM701 290q-40 0 -68 -28t-28 -68q0 -13 9 -22t22.5 -9t23 9
t9.5 22.5t9 22.5t22.5 9t22.5 9.5t9 23t-9 22.5t-22 9zM928 12l-71 72q35 49 35 110q0 80 -56 136t-135.5 56t-135.5 -56t-56 -135.5t56 -135.5t136 -56q61 0 110 35l72 -71q9 -9 22 -9t23 9v0q9 10 9 23t-9 22zM573 194.5q0 52.5 37.5 90t90 37.5t90 -37.5t37.5 -90
t-37.5 -90t-90 -37.5t-90 37.5t-37.5 90z" />
    <glyph glyph-name="3" unicode="&#xe7bb;" 
d="M952 556q-7 18 -20.5 32t-30.5 21q-19 8 -39 8t-38 -8q-17 -7 -30.5 -21t-21.5 -32q-7 -18 -7 -39q0 -16 5 -32l-119 -88l-80 193q39 30 39 80q0 20 -8 39q-7 18 -20.5 31.5t-31.5 21.5t-38 8t-38 -8t-31 -21.5t-21 -31.5q-7 -19 -7 -39q0 -50 38 -80l-80 -193l-119 88
q5 16 5 32q0 21 -7 39t-20.5 32t-31.5 21q-18 8 -38 8t-38 -8q-18 -7 -31.5 -21t-20.5 -32q-8 -18 -8 -38.5t8 -38.5q7 -18 20.5 -32t31.5 -21q16 -7 33 -8l65 -317q1 -8 7.5 -13.5t15.5 -5.5h535q8 0 14.5 5.5t8.5 13.5l64 317q18 1 34 8q17 7 30.5 21t20.5 32q8 18 8 38.5
t-8 38.5zM862 465q-4 0 -9 1q-10 2 -18 -3.5t-10 -15.5l-65 -318h-496l-65 318q-2 10 -10 15.5t-17 3.5q-5 -1 -10 -1q-21 0 -35.5 15.5t-14.5 37t14.5 37t35.5 15.5t35.5 -15.5t14.5 -37.5q0 -15 -7 -27q-5 -8 -3 -17t9 -14l158 -118q9 -7 20.5 -4t15.5 14l100 240
q3 9 -0.5 18t-11.5 12q-14 7 -22.5 20t-8.5 29q0 22 14.5 37.5t35.5 15.5t35.5 -15.5t14.5 -37.5q0 -35 -30 -48q-9 -4 -12.5 -13t0.5 -18l99 -240q5 -11 16 -14t20 4l158 118q8 5 9.5 14t-2.5 17q-8 12 -8 27q0 22 15 37.5t35.5 15.5t35.5 -15.5t15 -37t-15 -37t-36 -15.5z
M766 53h-513q-12 0 -20 -8t-8 -19.5t8 -19.5t20 -8h513q11 0 19 8t8 19.5t-8 19.5t-19 8z" />
    <glyph glyph-name="shuidian" unicode="&#xe627;" 
d="M111 335q0 80 64 183v0q50 79 135 170v0q94 99 195 180v0v0q19 15 38 0v0l2 -2q23 -18 49.5 -41t81 -74t107.5 -113t90 -120v0q64 -103 64 -183v0q0 -110 -55 -203t-150.5 -147t-207.5 -54v0v31v30q96 0 177.5 46t128.5 125t47 172v0q1 53 -40.5 126t-107.5 147v0
q-89 101 -205 197v0q-7 -5 -16 -13v0q-42 -36 -84 -76v0q-132 -126 -198 -230v0q-55 -89 -55 -151v0q0 -93 47 -172t128.5 -125t177.5 -46v0v-30v-31q-112 0 -207 54t-150.5 147t-55.5 203v0zM471 105q-13 6 -10 20v0l32 159h-158q-11 0 -16 10v0q-5 10 2 19v0l234 288
q9 11 22 5v0q13 -6 10 -20v0l-32 -158h158q12 0 17 -10v0q4 -11 -3 -20v0l-234 -288q-5 -7 -14 -7v0q-4 0 -8 2v0zM373 320h142q9 0 14 -7v0q6 -6 4 -15v0l-22 -108l164 202h-142q-9 0 -14 6v0q-5 7 -4 15v0l22 108l-164 -201v0zM524 403z" />
    <glyph glyph-name="zixun" unicode="&#xe62d;" 
d="M651 769q-128 0 -218.5 -67.5t-90.5 -163t90.5 -163t218.5 -67.5q27 0 57 4q23 -53 -18 -128l-2 -4q39 13 66 34.5t38.5 46t15 43.5t3.5 38q68 31 108.5 83t40.5 114q0 95 -90.5 162.5t-218.5 67.5v0zM550 578q0 -13 -9.5 -22t-22.5 -9t-22 9t-9 22t9 22.5t22 9.5
t22.5 -9.5t9.5 -22.5zM683 578q0 -13 -9.5 -22t-22.5 -9t-22 9t-9 22t9 22.5t22 9.5t22.5 -9.5t9.5 -22.5zM816 578q0 -13 -9.5 -22t-22.5 -9t-22 9t-9 22t9 22.5t22 9.5t22.5 -9.5t9.5 -22.5zM332.5 547q-111.5 0 -190 -58.5t-78.5 -141.5q0 -54 35 -99.5t95 -72.5
q-1 -16 2.5 -32.5t13 -38t33 -40t58.5 -29.5q-2 3 -4.5 7.5t-8 18t-8.5 27t-2.5 31t6.5 31.5q25 -4 49 -4q111 0 189.5 59t78.5 142t-78.5 141.5t-190 58.5zM199.5 264q-13.5 0 -22.5 9.5t-9 22.5t9 22t22.5 9t22.5 -9t9 -22t-9 -22.5t-22.5 -9.5zM332.5 264
q-13.5 0 -22.5 9.5t-9 22.5t9 22t22.5 9t22.5 -9t9 -22t-9 -22.5t-22.5 -9.5zM465.5 264q-13.5 0 -22.5 9.5t-9 22.5t9 22t22.5 9t22.5 -9t9 -22t-9 -22.5t-22.5 -9.5z" />
    <glyph glyph-name="zhangdan" unicode="&#xe60a;" horiz-adv-x="1446" 
d="M454 157v0h-399q-23 0 -39 16t-16 39v494q0 23 16 39t39 16h399q23 0 39 -16t16 -39v-494q0 -23 -16 -39t-39 -16zM55 730q-9 0 -16 -7t-7 -17v-494q0 -10 7 -16.5t16 -6.5h399v0q10 0 17 6.5t7 16.5v494q0 10 -7 17t-17 7h-399zM439 696zM527 68h-332q-7 0 -11.5 5
t-4.5 11.5t4.5 11t11.5 4.5h332q17 0 29.5 12.5t12.5 29.5v446q0 6 4.5 11t11.5 5t11.5 -5t4.5 -11v-446q0 -30 -22 -52t-52 -22zM344 591h-243q-6 0 -11 4.5t-5 11t5 11t11 4.5h243q7 0 11.5 -4.5t4.5 -11t-4.5 -11t-11.5 -4.5zM408 443h-307q-6 0 -11 5t-5 11.5t5 11
t11 4.5h307q7 0 11.5 -4.5t4.5 -11t-4.5 -11.5t-11.5 -5zM408 297h-307q-6 0 -11 4.5t-5 11t5 11t11 4.5h307q7 0 11.5 -4.5t4.5 -11t-4.5 -11t-11.5 -4.5z" />
    <glyph glyph-name="icon" unicode="&#xe60b;" 
d="M512 848l144 -284l317 -47l-228 -220l8 -42q-28 -9 -80 -17l-17 85l144 139l-199 30l-89 178l-93 -178l-199 -30l148 -139l-17 -85q-16 2 -42.5 8.5t-37.5 8.5l8 42l-232 225l321 42zM787 77l30 -157l-161 127q92 17 131 30v0zM364 52l-165 -132l34 161q50 -22 131 -29v0
zM102 420q75 -68 152 -110q-64 -9 -72 -30v-101q-95 54 -182 127l102 12v102v0zM922 420q-75 -69 -152 -110h4q64 -9 72 -30v-101q81 46 178 127q-55 6 -102 12v102v0zM753 301q2 0 6 -1q31 -7 42.5 -10.5t11.5 -9.5q0 -15 -51 -21zM258 259q-2 1 -6 2q-23 6 -31.5 10
t-8.5 9q0 8 44 19q7 1 11 2zM195 272v0q38 -26 126.5 -43t194.5 -17q99 0 181 14t128 37v-63v-60v-29q-45 -26 -126.5 -40.5t-182.5 -14.5q-107 0 -195 17.5t-126 45.5v21v51v81zM600 246h-166v16q3 0 20 2q13 1 17 3q6 2 9.5 6.5t3.5 13.5v127h-50v19h11q17 0 30 4t21 9.5
t14 11.5q5 5 9 10h35q0 -7 -1 -30q-1 -15 -1 -31v-118q0 -7 3 -12.5t9 -7.5q6 -3 18 -5q13 -2 18 -2v-16z" />
    <glyph glyph-name="jungongyanshou" unicode="&#xe632;" 
d="M297 105h167v-73h188v73h154l104 -224h-687l74 224v0zM231 415h-135v70l144 14q26 102 114.5 168t201.5 66q89 0 164 -41t118.5 -112t43.5 -154v-11h-42q-4 -108 -85 -185q-86 -81 -207.5 -81t-207.5 81q-81 77 -85 185h-24v0zM756 415h-271h-146q4 -76 61 -129
q61 -58 147.5 -58t147.5 58q57 53 61 129z" />
    <glyph glyph-name="mys" unicode="&#xe603;" 
d="M901 -36q-10 0 -10 10q0 82 -35 156t-98 126q-8 6 -1.5 14t13.5 1q67 -55 104 -132.5t37 -164.5q0 -10 -10 -10zM154 -36q-4 0 -7 3t-3 7q0 78 30 150q29 69 82 122t122 82q72 30 150 30h18q10 -1 9.5 -11t-10.5 -10q-9 1 -17 1q-99 0 -183 -49t-132.5 -132.5
t-48.5 -182.5q0 -10 -10 -10zM533.5 336q-103.5 0 -176.5 73.5t-73 177t73 177t176.5 73.5t177 -73.5t73.5 -177t-73.5 -177t-177 -73.5z" />
    <glyph glyph-name="bangzhuzhongxin" unicode="&#xe669;" 
d="M511.5 832q-125.5 0 -214.5 -89t-89 -215q0 -79 39 -148t106 -110v-176q0 -65 46.5 -111.5t112.5 -46.5t112.5 46.5t46.5 111.5v176q67 41 105.5 110t38.5 148q0 126 -89 215t-214.5 89zM512 -36q-54 0 -92 38.5t-38 91.5v57h260v-57q0 -53 -38 -91.5t-92 -38.5zM649 291
l-7 -5v-106h-260v106l-8 5q-63 36 -100 100t-37 137q0 114 80.5 194.5t194 80.5t194 -80.5t80.5 -194.5q0 -73 -36.5 -137t-100.5 -100zM512 687q-66 0 -112.5 -46.5t-46.5 -112.5h29q0 54 38 92t92 38t92 -38t38 -92h29q0 66 -46.5 112.5t-112.5 46.5z" />
    <glyph glyph-name="dengji" unicode="&#xe60c;" 
d="M1024 799v-23q-25 0 -54 -6t-39 -15q-21 -22 -49 -94l-274 -692h-175l-302 677q-36 81 -62 105q-26 25 -69 25v23h472v-23q-86 0 -105 -8t-19 -38q0 -17 20 -63q19 -43 30 -69l186 -415l181 451q9 26 17 48q7 27 7 37q0 34 -24 46q-11 5 -48.5 8t-64.5 3v23h372v0z
M1024 799z" />
    <glyph glyph-name="guanjiaowangtubiao53" unicode="&#xe649;" 
d="M188 329v-188l324 -175l324 175v188l-324 -180l-324 180v0zM512 802l-512 -277l512 -278l418 227v-320h94v371l-512 277v0zM512 802z" />
    <glyph glyph-name="shenhe" unicode="&#xe64b;" 
d="M403 214h-77q-10 0 -17 7.5t-7 17.5t7 17t17 7h76q3 35 16 66h-92q-10 0 -17 7.5t-7 17.5t7 17.5t17 7.5h122q36 46 91 66h-213q-10 0 -17 7t-7 17t7 17.5t17 7.5h372q10 0 17 -7.5t7 -17.5t-7 -17t-17 -7h-19q49 -18 84.5 -58t47.5 -92v355q0 31 -21.5 53t-51.5 22h-452
q-31 0 -52.5 -22t-21.5 -53v-535q0 -31 21.5 -53t52.5 -22h265q-58 18 -98.5 65t-49.5 109v0zM326 609h372q10 0 17 -7t7 -17.5t-7 -17.5t-17 -7h-372q-10 0 -17 7t-7 17.5t7 17.5t17 7v0zM612 108q12 -7 26 -3.5t21 15.5l74 160q7 12 3.5 26t-15.5 21t-26 3.5t-21 -15.5
l-61 -131l-88 42q-12 8 -26 4t-21 -16t-3.5 -26t15.5 -21z" />
    <glyph glyph-name="woderenwu2" unicode="&#xe73b;" 
d="M768 665h-118v85q0 5 -4.5 9t-10.5 4t-11 -4t-5 -9v-85h-219v85q0 5 -5 9t-11 4t-10.5 -4t-4.5 -9v-85h-122q-31 2 -54 -5.5t-34 -17t-17.5 -26.5t-7.5 -27t-2 -26v-7v-442v-9.5t1 -18.5t4 -22t10 -23t17 -19.5t28 -14t41 -2.5h593q30 5 47.5 26t18.5 48v479
q-1 31 -10.5 52.5t-21.5 31.5t-32 16t-31 6.5t-29 0.5zM861 80q0 -2 -0.5 -6t-4.5 -12t-11 -13.5t-21.5 -9.5t-34.5 -3h-564q-57 1 -62 65v443q1 5 1 17.5t0.5 18t3 15.5t6.5 14.5t12.5 11t20 9t29.5 4t41 0.5h92v-149q0 -5 4.5 -9t10.5 -4t11 4t5 9v149h219v-149
q0 -5 4.5 -8.5t10.5 -3.5t11 3.5t5 8.5v149h130q81 -1 81 -75v-479v0zM675 406q-13 13 -26 0l-163 -165l-71 77q-7 7 -15 9t-15 -4q-6 -7 -4.5 -15.5t8.5 -15.5l81 -83v0v0q1 -1 5 -3q0 -1 1 -1.5l1 -0.5q4 -2 8.5 -2t8.5 2l1 0.5t1 1.5q4 2 5 3v0v0l169 171q16 16 5 26v0z
" />
    <glyph glyph-name="shenhe1" unicode="&#xe72c;" 
d="M804 218v159q-5 0 -22 0.5t-26 0.5q0 -51 -0.5 -78t-0.5 -79v-70q0 -31 -1 -37q-4 -21 -13 -35q-19 -30 -54 -40q-8 -2 -40 -2h-61h-281h-71q-33 0 -38 1q-23 5 -40 18q-24 19 -33 56q-1 6 -1 38v68v307v75q0 35 1 40q5 26 21 46q19 24 56 31h11.5h13.5h46h291q2 23 3 32
q1 3 2 8.5t1 8.5h-287q-8 0 -25 0.5t-28 0.5t-24.5 -1t-22.5 -3q-48 -12 -74 -46q-23 -29 -31 -65q-3 -11 -3 -52v-76v-300v-73q0 -37 2 -47q12 -55 48 -83q29 -23 64 -31q9 -2 49 -2h84h254h66q47 0 64 5q50 16 77 59q15 23 21 55q2 9 2 43v68zM536 231h-176h-51
q-21 0 -25 -2q-10 -4 -14 -14t2 -20q3 -5 18 -11h246h37q17 0 21 2q9 3 13 13q3 6 2 10q-1 8 -5.5 13t-13.5 7t-14.5 2.5t-20 0t-19.5 -0.5zM609 356q-2 14 -11 18t-28 4h-34h-176h-51q-21 0 -26 -1q-9 -4 -13 -14t2 -21q3 -5 18 -11h246q5 0 17 -0.5t18 -0.5t14.5 1
t13.5 4.5t8 9.5q3 7 2 11zM926 737q-2 -1 -5.5 -1.5t-5.5 -1.5l-11 -11l-1 -1l-1 -1l-1 -1l-1 -1l-1 -1l-1 -1l-1 -2l-1 -1l-1 -1l-1 -1l-1 -1l-1 -1l-1 -1l-1 -1l-1 -1l-1 -1l-1 -1l-1 -1l-1 -1l-1 -1q-10 -10 -28 -29t-26 -27q-33 -35 -75 -79.5t-75 -79.5h-1
q-17 19 -52 55.5t-53 54.5q-1 1 -4 5t-5 5.5t-5.5 4.5t-6 3.5l-7.5 1.5t-8 -2q-8 -2 -11.5 -7t-4.5 -10.5t0 -9.5t4.5 -9.5t5.5 -8t7 -7.5l6 -6q15 -15 45.5 -47t45.5 -47q2 -2 8.5 -9.5t10.5 -12t10.5 -9t11.5 -5.5q4 0 7.5 0.5t6.5 2.5t4.5 3.5t4.5 5t4 4.5q9 9 27 28
t28 29q39 40 93 97t93 99q10 13 3.5 27t-22.5 14zM455 488q-17 26 -21 37h-87h-43q-18 0 -19 -1q-10 -3 -14.5 -13.5t0.5 -22.5q2 -3 4 -5l3 -3t5 -2.5t6 -2.5l174 1h0.5h0.5z" />
    <glyph glyph-name="changjianwenti" unicode="&#xe621;" 
d="M960 384q0 91 -35.5 174t-95.5 143t-143 95.5t-174 35.5t-174 -35.5t-143 -95.5t-95.5 -143t-35.5 -174t35.5 -174t95.5 -143t143 -95.5t174 -35.5q142 0 259 82l189 -82l-82 189q82 117 82 259zM498 160q-20 0 -34 14t-14 34t14 34t34 14t34 -14t14 -34t-14 -34t-34 -14
zM587 417q-38 -24 -48.5 -42.5t-11.5 -54.5h-64q2 47 18.5 79t69.5 66q33 21 24 51q-5 14 -19.5 24t-38.5 10q-17 0 -30.5 -4.5t-20.5 -10.5t-12 -13.5t-6 -11t-1 -5.5l-63 8q2 14 10.5 29t23.5 30.5t41 25.5t59 10q43 0 75 -20t43 -54q10 -33 -3.5 -64.5t-45.5 -52.5z" />
    <glyph glyph-name="zixun1" unicode="&#xe69f;" 
d="M891 450q-1 102 -52 188t-138 136t-189 50t-189 -50t-138 -136t-52 -188q-57 -46 -57 -119q0 -63 44.5 -107.5t107.5 -44.5q54 0 96 35l-72 267q-13 2 -24 2q-8 0 -17 -1q14 113 99.5 189.5t201.5 76.5t201.5 -76.5t99.5 -189.5q-9 1 -17 1q-11 0 -24 -2l-72 -267
q32 -26 72 -32q-56 -60 -133 -84l-6 -6q-13 22 -35 35.5t-48 13.5q-39 0 -67 -27.5t-28 -67t28 -67t67 -27.5q32 0 56.5 19t33.5 49q78 19 141.5 68t101.5 119q30 21 47.5 53.5t17.5 70.5q0 73 -57 119v0z" />
    <glyph glyph-name="xiaoxi" unicode="&#xe62c;" 
d="M829 696zM692 696q0 57 40 97t97 40t97 -40t40 -97t-40 -97t-97 -40t-97 40t-40 97zM689 772q-8 3 -23.5 8t-63 13.5t-95 9t-113 -13.5t-123.5 -46q-51 -28 -93.5 -72t-70.5 -96.5t-36 -113t5 -118t56.5 -113.5t115.5 -99q-35 -115 -20 -185q1 0 2 2q50 81 156 96
q30 3 58 1q1 0 13.5 -1.5t22.5 -2t27.5 -1t35.5 1t40 4t48 8.5t53 15q43 13 88 40.5t89.5 73.5t72 101t27.5 130.5t-36 155.5q-29 -16 -58 -21q1 0 1 -1q4 -8 8.5 -17.5t12.5 -35.5t11 -51t-1.5 -61t-19.5 -69.5t-47.5 -71.5t-80.5 -72q-1 0 -8 -5t-12 -7.5t-16.5 -9.5
t-20.5 -10.5t-25 -10.5t-29.5 -10t-34 -8.5t-38 -6t-42.5 -2.5t-47 1q-26 3 -30 4q-12 3 -38.5 4.5t-57.5 -4.5q-16 -4 -30 -12l-12 -6q19 39 -6 71q-11 15 -40 34q-8 5 -12.5 8.5t-25 20.5t-34 33t-31 44t-25.5 55t-8.5 64t12.5 74q23 68 78.5 124.5t129.5 89.5t159.5 37.5
t170.5 -32.5q-2 30 11 62zM272 417zM219 416.5q0 21.5 15.5 37t37.5 15.5t37.5 -15.5t15.5 -37t-15.5 -37t-37.5 -15.5t-37.5 15.5t-15.5 37zM512 417zM460 416.5q0 21.5 15 37t37 15.5t37.5 -15.5t15.5 -37t-15.5 -37t-37.5 -15.5t-37 15.5t-15 37zM752 417zM699 416.5
q0 21.5 15.5 37t37.5 15.5t37.5 -15.5t15.5 -37t-15.5 -37t-37.5 -15.5t-37.5 15.5t-15.5 37z" />
    <glyph glyph-name="jungongyanshou1" unicode="&#xe677;" 
d="M512 879q-100 0 -192 -39.5t-158 -105.5t-105.5 -158t-39.5 -192t39.5 -192t105.5 -158t158 -105.5t192 -39.5t192 39.5t158 105.5t105.5 158t39.5 192t-39.5 192t-105.5 158t-158 105.5t-192 39.5zM512 -93q-97 0 -185.5 37.5t-152.5 101.5t-101.5 152.5t-37.5 185.5
t37.5 185.5t101.5 152.5t152.5 101.5t185.5 37.5t185.5 -37.5t152.5 -101.5t101.5 -152.5t37.5 -185.5t-37.5 -185.5t-101.5 -152.5t-152.5 -101.5t-185.5 -37.5zM642 566h-312v-78h312v78zM408 514h-52v28h52v-28zM512 514h-26v28h28v-28h-2zM564 514h-26v28h28v-28h-2z
M618 514h-26v28h26v-28zM512 783q-108 0 -200 -53.5t-145.5 -145.5t-53.5 -200t53.5 -200t145.5 -145.5t200 -53.5t200 53.5t145.5 145.5t53.5 200t-53.5 200t-145.5 145.5t-200 53.5zM512 254h-207v337h361v-207h-24v78h-312v-78h307v-2h-9q-41 0 -74 -28h-224v-78h182v-22
zM618 436v-26h-26v28h26v-2zM564 436v-26h-26v28h26v-2zM512 436v-26h-26v28h26v-2zM408 436v-26h-52v28h52v-2zM408 330v-26h-52v26h52zM512 304h-26v26h28v-26h-2zM630 177q-36 0 -62 26.5t-26 62.5t26 62t62 26t62.5 -26t26.5 -62t-26.5 -62.5t-62.5 -26.5zM614 268
l-24 24l-24 -24l52 -54l76 76l-28 28z" />
    <glyph glyph-name="shuidiancailiaoyanshou" unicode="&#xe67c;" 
d="M512 879q-100 0 -192 -39.5t-158 -105.5t-105.5 -158t-39.5 -192t39.5 -192t105.5 -158t158 -105.5t192 -39.5t192 39.5t158 105.5t105.5 158t39.5 192t-39.5 192t-105.5 158t-158 105.5t-192 39.5zM512 -93q-97 0 -185.5 37.5t-152.5 101.5t-101.5 152.5t-37.5 185.5
t37.5 185.5t101.5 152.5t152.5 101.5t185.5 37.5t185.5 -37.5t152.5 -101.5t101.5 -152.5t37.5 -185.5t-37.5 -185.5t-101.5 -152.5t-152.5 -101.5t-185.5 -37.5zM512 783q-108 0 -200 -53.5t-145.5 -145.5t-53.5 -200t53.5 -200t145.5 -145.5t200 -53.5t200 53.5
t145.5 145.5t53.5 200t-53.5 200t-145.5 145.5t-200 53.5zM529 488l87 -87l-120 -119l-86 86zM316 188v0q-11 10 -11 24.5t11 23.5l101 101l48 -48l-101 -101q-10 -11 -24 -11t-24 11zM708 532l-101 -101l-48 48l101 101q10 11 24 11t24 -11v0q11 -10 11 -24t-11 -24z" />
    <glyph glyph-name="shuidiangongchengyanshou" unicode="&#xe686;" 
d="M467 228l-2 2q-36 17 -50 57.5t-2 77.5v2l12 -6v-1q-11 -32 1.5 -67.5t43.5 -50.5l2 -2zM540 441q2 0 2 -3l-11 -71l33 7q2 0 4 -2v-4l-68 -93l-2 -2h-2q-1 0 -1 3l10 66l-36 -3q-2 0 -4 2v3l71 96q2 1 4 1zM874.5 721q-91.5 98 -217.5 136.5t-255 9.5t-227 -120.5
t-136.5 -217.5t-9.5 -255t120.5 -227t217.5 -136.5t255 -9.5t227 120.5t136.5 217.5t9.5 255t-120.5 227zM837 33q-95 -88 -219.5 -116t-246.5 9.5t-210 132.5t-116 219.5t9.5 246.5t133 210t220 116t246 -9.5t209.5 -132.5t116 -219.5t-9.5 -246.5t-132.5 -210z
M800.5 651.5q-72.5 78.5 -173 109t-202.5 7.5t-180.5 -95.5t-109 -173t-7.5 -202.5t95.5 -180.5t173 -109t202.5 -7.5t180 96t108.5 172.5t8 202t-95 181zM512 165q-65 0 -111.5 46.5t-46.5 111.5q0 30 21 75.5t54.5 93.5t48.5 68.5t29 36.5l5 7l5 -7q10 -9 43.5 -54
t71.5 -113.5t38 -106.5q0 -65 -46.5 -111.5t-111.5 -46.5z" />
    <glyph glyph-name="shenhe1" unicode="&#xe797;" 
d="M-2490 -236zM870.5 734q-23.5 23 -55.5 23h-113v2q-1 23 -17.5 39t-39.5 16h-44v1q-4 35 -29.5 57.5t-59.5 22.5t-59.5 -22.5t-29.5 -57.5v-1h-44q-23 0 -39.5 -16t-17.5 -39v-2h-113q-32 0 -55.5 -23t-23.5 -56v-726q0 -33 23.5 -56t55.5 -23v0h606q32 0 55.5 23
t23.5 56v726q0 33 -23.5 56zM512 842q15 0 25.5 -10.5t10.5 -25.5t-10.5 -26t-25.5 -11t-25.5 11t-10.5 26t10.5 25.5t25.5 10.5zM375 757q0 4 4 4h55l1 -1q12 -20 32.5 -32t44.5 -12t44.5 12t32.5 32l1 1h55q4 0 4 -4v-60q0 -4 -4 -4h-266q-4 0 -4 4v60v0zM826 -48
q0 -5 -3.5 -8t-7.5 -3h-606q-4 0 -7.5 3t-3.5 8v726q0 5 3.5 8t7.5 3h113l1 -1q3 -21 19 -34.5t37 -13.5h266q21 0 37 13.5t19 34.5l1 1h113q4 0 7.5 -3t3.5 -8v-726v0zM722 505h-251q-6 0 -10 -5t-4 -12v-24q0 -7 4 -12t10 -5h251q6 0 10 5t4 12v24q0 7 -4 12t-10 5z
M722 321h-251q-6 0 -10 -5t-4 -12v-24q0 -7 4 -12t10 -5h251q6 0 10 5t4 12v24q0 7 -4 12t-10 5zM310 475l-5 -5q-11 -10 -17 -16.5t-4 -14.5t10 -10q8 -3 16 4q4 4 11 11.5t10 10.5q14 -13 23 -21q7 -7 15.5 -4t10 11t-4.5 14l-22 22l1 1l7.5 8t11.5 12q7 7 5 14
q-2 9 -10 11.5t-15 -4.5l-24 -24q-19 21 -21 23q-11 11 -21 0q-11 -10 1 -21zM396 345h-1q-2 0 -4 -1l-4 -2q-4 -3 -7 -5q-17 -11 -49 -36l-1 -1q-7 -5 -11 -9h-1l-2 2l-15 12q-4 3 -10 6q-7 3 -11 -3q-3 -3 -2 -9q1 -4 2 -7q7 -17 21 -38q6 -8 16 -8q9 0 15 6l9 9
q21 22 34 36q2 2 8 9l3 4l6 6v1q13 14 13 21t-9 7zM396 161h-1l-4 -2l-4 -2q-4 -2 -7 -4q-17 -11 -49 -36l-1 -1q-7 -6 -11 -9h-1l-2 2l-15 12q-4 3 -10 5q-7 3 -11 -2q-3 -4 -2 -9q1 -4 2 -7q7 -18 21 -38q6 -9 16 -9q9 0 15 6q4 4 9 10q21 22 34 36q2 2 8 9l3 3
q0 1 2.5 3.5l3.5 3.5v1q13 14 13 21t-9 7zM722 136h-251q-6 0 -10 -5t-4 -12v-24q0 -7 4 -12t10 -5h251q6 0 10 5t4 12v24q0 7 -4 12t-10 5z" />
    <glyph glyph-name="huanjing" unicode="&#xe63f;" 
d="M616 896h-208q-110 0 -204 -55t-149 -149t-55 -204v-207q0 -111 55 -205t149 -149t204 -55h207q111 0 205 55t148.5 148.5t54.5 204.5v208q1 110 -54 204.5t-149 149t-204 54.5zM949 295q0 -94 -46.5 -174.5t-127 -127t-174.5 -46.5h-178q-94 0 -174.5 46.5t-127 127
t-46.5 174.5v178q0 94 46.5 174.5t127 127t174.5 46.5h178q94 0 174.5 -46.5t127 -127t46.5 -174.5v-178zM661 643q-67 0 -118.5 -45.5t-58.5 -111.5v-2q-52 47 -121 47h-139v-68q7 -66 59 -112t120 -46h64v59h-66h-1q-18 0 -41 11t-41 29q-32 32 -36 69h82q46 0 83 -33.5
t37 -86.5v-454h58l1 567q0 52 36.5 85.5t82.5 33.5h80q-3 -37 -35 -69q-40 -38 -83 -40h-66v-58h64q67 0 119 46t60 113v66h-140v0z" />
    <glyph glyph-name="xiaoxi1" unicode="&#xe61e;" 
d="M514 809q-116 0 -215 -49t-157 -134t-58 -185q0 -77 37.5 -147.5t105.5 -123.5l105 -82q-5 -32 -31 -96q-8 -19 7 -34q9 -8 21 -8q7 0 13 2q114 51 180 121q115 1 212 51t153.5 134t56.5 183q0 100 -57.5 185t-156.5 134t-216 49v0zM513 135h-4q-6 -1 -13.5 -5.5
t-11.5 -9.5l-4 -4q-55 -55 -100 -80q20 66 8 83q-2 3 -4 5v0q-1 0 -1.5 0.5t-1.5 0.5q-81 44 -144 104q-42 44 -65 100.5t-23 111.5q0 82 49 152t133 111t183 41t183.5 -40.5t133.5 -111t49 -153t-49.5 -153t-134 -111.5t-183.5 -41v0zM513 135zM697 530h-365
q-13 0 -22.5 -9.5t-9.5 -23t9.5 -22.5t22.5 -9h365q14 0 23.5 9t9.5 22.5t-9.5 23t-23.5 9.5v0zM697 530zM654 380h-279q-13 0 -22.5 -9.5t-9.5 -23t9.5 -23t22.5 -9.5h279q14 0 23.5 9.5t9.5 23t-9.5 23t-23.5 9.5v0zM654 380z" />
    <glyph glyph-name="cailiao" unicode="&#xe791;" 
d="M205 282q-85 0 -145 -60t-60 -145t60 -145t145 -60t145 60t60 145t-60 145t-145 60zM204.5 -77q-63.5 0 -108.5 45t-45 108.5t45 108.5t108.5 45t108.5 -45t45 -108.5t-45 -108.5t-108.5 -45zM1024 281.5q0 84.5 -60 144.5t-145 60q-46 0 -87 -19l79 79h-1q60 60 60 145
t-60 145t-144.5 60t-144.5 -60l36 -36q45 45 108.5 45t108.5 -45t45 -108.5t-45 -108.5l1 -1l-161 -161v14q0 85 -60 145t-144 60h-13l160 159l-36 37l-246 -247q-70 -61 -70 -154q0 -85 60 -145t145 -60q47 0 90 21l-20 -20q-70 -61 -70 -154q0 -85 60 -145t144.5 -60
t144.5 60v0l205 205v0q60 60 60 144.5zM256 435q0 59 39 103v0l15 14q43 37 100 37q63 0 108 -45t45 -108.5t-45 -108.5t-108.5 -45t-108.5 45t-45 108zM614.5 -77q-63.5 0 -108.5 45t-45 109q0 58 38 101v0l16 16q43 36 99 36q64 0 109 -45t45 -108.5t-45 -108.5
t-108.5 -45zM819 64v13q0 85 -60 145t-145 60q-5 0 -12 -1l109 109v0q45 45 108.5 45t108.5 -45t45 -108.5t-45 -108.5v0zM409.5 538q-42.5 0 -72.5 -30t-30 -72.5t30 -72.5t72.5 -30t72.5 30t30 72.5t-30 72.5t-72.5 30zM409.5 384q-21.5 0 -36.5 15t-15 36t15 36t36.5 15
t36.5 -15t15 -36t-15 -36t-36.5 -15zM204.5 179q-42.5 0 -72.5 -30t-30 -72.5t30 -72.5t72.5 -30t72.5 30t30 72.5t-30 72.5t-72.5 30zM205 26q-21 0 -36 15t-15 36t15 36t36 15t36 -15t15 -36t-15 -36t-36 -15zM614.5 179q-42.5 0 -72.5 -30t-30 -72.5t30 -72.5t72.5 -30
t72.5 30t30 72.5t-30 72.5t-72.5 30zM614.5 26q-21.5 0 -36.5 15t-15 36t15 36t36.5 15t36.5 -15t15 -36t-15 -36t-36.5 -15z" />
    <glyph glyph-name="xinfang" unicode="&#xe6cd;" 
d="M920 413l-45 -47q-9 -9 -22.5 -9t-22.5 9l-318 242l-318 -242q-9 -9 -22.5 -9t-22.5 9l-46 47q-9 9 -9 22.5t9 23.5l221 167l165 126q10 10 23 10t23 -10l385 -293q10 -10 10 -23.5t-10 -22.5v0zM866 643l8 -43l-39 19q-3 2 -6.5 2t-5.5 -2l-40 -19l8 43q1 5 -3 9l-33 31
l45 7q6 1 9 6l20 38l19 -38q3 -5 10 -6l45 -7l-33 -31q-5 -4 -4 -9v0zM718 720l5 -26l-25 12q-2 1 -4 1t-4 -1l-25 -12l5 26q1 3 -2 6l-21 18l28 4q5 0 6 4l13 23l12 -23q2 -4 6 -4l29 -4l-21 -18q-3 -3 -2 -6v0zM189 707q0 12 7.5 19.5t19.5 7.5h80q12 0 19.5 -7.5
t7.5 -19.5v-46l-134 -109v155v0zM198 339l291 225q10 9 23 9t22 -9l292 -225q12 -12 8 -29q1 -3 1 -7v-296q0 -11 -7.5 -19t-19.5 -8h-592q-12 0 -19.5 8t-7.5 19v296v7q-4 17 9 29v0zM418 61q0 -12 7.5 -19.5t19.5 -7.5h134q12 0 19.5 7.5t7.5 19.5v215q0 11 -7.5 19
t-19.5 8h-134q-12 0 -19.5 -8t-7.5 -19v-215v0z" />
    <glyph glyph-name="fangwufanxin" unicode="&#xe608;" 
d="M360 81q-11 -10 -23 0l-37 33q-5 4 -5 10t5 10l190 167l60 -53l-190 -167v0zM765 37h97v270q37 0 63 23t25.5 56t-26.5 56l-349 303q-26 23 -63 23t-63 -23l-349 -303q-26 -23 -26.5 -56t25.5 -56t63 -23v-270h97v321l253 220l253 -220v-321v0zM98 25h853v-85h-853v85v0z
M803 667v-78l-90 78h90v0zM436 376q-6 -2 -7.5 -6t3.5 -8l155 -137q11 -10 23 0l52 46q11 10 0 20l-113 99q-11 11 -27 7l-86 -21v0zM576 378q12 10 23 0l37 -33q5 -4 5 -10t-5 -10v-1l-60 53v1z" />
    <glyph glyph-name="shourutubiao-01" unicode="&#xe718;" 
d="M685 723q-25 40 -67 65t-93 25q-48 0 -89 -22.5t-65 -60.5q-134 -24 -220.5 -127.5t-86.5 -237.5v-39q0 -100 49.5 -185.5t135 -135.5t186.5 -50h154q101 0 186.5 50t135 135.5t49.5 185.5v39q0 126 -78.5 225t-196.5 133zM525 762q57 0 95.5 -38.5t38.5 -96.5
q0 -25 -6 -38h-256q-7 6 -7 38q0 54 39 94.5t96 40.5zM909 326q0 -85 -42.5 -158.5t-116 -117.5t-161.5 -44h-154q-85 0 -158.5 42.5t-117.5 116.5t-44 161v39q0 104 63.5 187.5t160.5 113.5q0 -7 -3 -19.5t-3 -19.5q0 -25 6 -38h-25q-9 -4 -13 -7t-8.5 -8t-4.5 -11
q0 -9 8 -17t18 -8h416q9 0 17 8t8 17.5t-8 17.5t-17 8h-26q0 6 3 19t3 19q0 26 -6 39q88 -35 143 -115t55 -180zM608 307q10 0 18 8t8 17.5t-8 17.5t-18 8h-51l51 52q10 9 10 18t-10 14q-5 4 -16 4t-16 -4l-64 -64l-64 64q-5 4 -16 4t-16 -4q-10 -10 -10 -19t10 -13l51 -52
h-57q-10 0 -18 -8t-8 -17.5t8 -17.5t18 -8h76v-51h-76q-10 0 -18 -8t-8 -17.5t8 -17.5t18 -8h76v-64q0 -10 8 -18t18 -8t18 8t8 18v64h76q10 0 18 8t8 17.5t-8 17.5t-18 8h-76v51h70z" />
    <glyph glyph-name="tubiaozhizuomoban" unicode="&#xe60f;" 
d="M814 251q0 -113 -80.5 -193.5t-194 -80.5t-194 80t-80.5 194q0 43 28.5 106t68.5 123.5t81 114.5t68.5 87t28.5 33q11 -13 29.5 -35t65.5 -84t83 -117.5t66 -120.5t30 -107zM503 -33q-133 0 -226.5 94t-93.5 227q0 110 157 332q81 116 156 200q3 3 7.5 3t7.5 -3
q74 -84 155 -200q158 -222 158 -332q0 -73 -31.5 -138.5t-87.5 -111.5q-8 -6 -14.5 2t1.5 14q53 43 82.5 104t29.5 130q0 104 -154 321q-68 97 -147 189q-78 -92 -147 -189q-153 -218 -153 -322q0 -124 88 -212t212 -88q72 0 136 32q9 5 13.5 -4t-4.5 -14q-68 -34 -145 -34z
M534 495l-138 -171h86l-27 -145l143 170h-83zM455 174h-2q-3 2 -3 6l26 139h-80q-3 0 -4.5 3t0.5 5l138 171q3 3 6.5 1.5t2.5 -4.5l-18 -141h77q4 0 5 -3t-1 -5l-143 -170q-1 -2 -4 -2zM406 329h76q2 0 3 -1q2 -2 1 -4l-22 -127l124 147h-73q-2 0 -3.5 2t-1.5 4l17 128z
M451 636q-2 0 -3 1q-4 3 -1 7q27 34 52 65q4 4 7.5 0.5t0.5 -7.5q-24 -28 -52 -64q-2 -2 -4 -2zM417 592q-2 0 -3 1q-4 3 -1 7q12 16 13 18q3 3 7 0t1 -7q-1 -1 -13 -17q-2 -2 -4 -2z" />
    <glyph glyph-name="huanjingjiance" unicode="&#xe938;" 
d="M730 226q-91 0 -155.5 64t-64.5 155t64.5 155.5t155.5 64.5t155.5 -64.5t64.5 -155.5t-64.5 -155t-155.5 -64zM730 623q-73 0 -125 -51.5t-52 -125.5q0 -72 52 -124t125 -52t124.5 51.5t51.5 125t-51.5 125t-124.5 51.5zM767 209v-189h-610v417l305 258l96 -81
q37 38 87 56l-152 128q-14 12 -32.5 12t-32.5 -12l-405 -343q-16 -13 -18 -34t12 -36q13 -16 34 -17.5t36 11.5l6 6v-396q0 -13 9.5 -22t22.5 -9h672q13 0 22.5 9t9.5 22v238q-31 -14 -62 -18zM466 419h61q16 0 22.5 13t0 26t-22.5 13h-61q-16 0 -22.5 -13t0 -26t22.5 -13z
M756 648v61q0 16 -13 22.5t-26 0t-13 -22.5v-61q0 -16 13 -22.5t26 0t13 22.5zM756 177v61q0 16 -13 22.5t-26 0t-13 -22.5v-61q0 -16 13 -22.5t26 0t13 22.5zM933 419h61q16 0 22.5 13t0 26t-22.5 13h-61q-16 0 -22.5 -13t0 -26t22.5 -13z" />
  </font>
</defs>
</svg>
